<?xml version="1.0" encoding="utf-8"?>
<!-- Generator: Adobe Illustrator 16.0.0, SVG Export Plug-In . SVG Version: 6.00 Build 0)  -->
<!DOCTYPE svg PUBLIC "-//W3C//DTD SVG 1.1//EN" "http://www.w3.org/Graphics/SVG/1.1/DTD/svg11.dtd">
<svg version="1.1" id="Capa_1" xmlns="http://www.w3.org/2000/svg" xmlns:xlink="http://www.w3.org/1999/xlink" x="0px" y="0px"
	 width="200.522px" height="33.75px" viewBox="0 0 200.522 33.75" enable-background="new 0 0 200.522 33.75" xml:space="preserve">
<g>
	<g>
		<path fill="#191654" d="M52.322,7.055v3.861h-9.844v4.33h8.713v3.861h-8.713v4.384h10.229v3.86H38.48V7.055H52.322z"/>
		<path fill="#191654" d="M73.96,7.824v20.325h-0.104l-13.657-12.34l0.078,11.542h-3.897V7.055h0.158l13.63,12.524L70.089,7.824
			H73.96z"/>
		<path fill="#191654" d="M92.311,7.824v3.716h-9.466v4.165h8.38v3.714h-8.38v4.218h9.837v3.714H78.999V7.824H92.311z"/>
		<path fill="#191654" d="M107.183,27.351l-4.109-6.208h-2.572v6.208h-3.842V7.824h5.908c2.422,0,4.3,0.589,5.638,1.765
			c1.33,1.177,2.002,2.782,2.002,4.814c0,1.205-0.254,2.332-0.757,3.383c-0.504,1.052-1.277,1.88-2.32,2.48l4.534,7.084H107.183z
			 M100.501,17.43h2.729c1.044,0,1.803-0.306,2.281-0.917c0.474-0.609,0.712-1.267,0.712-1.976c0-0.707-0.2-1.382-0.604-2.029
			c-0.408-0.646-1.193-0.967-2.361-0.967h-2.757V17.43z"/>
		<path fill="#191654" d="M128.418,26.383c-0.77,0.344-1.618,0.628-2.547,0.85c-0.93,0.22-1.775,0.332-2.533,0.332
			c-2.068,0-3.887-0.403-5.454-1.208c-1.565-0.804-2.77-1.919-3.619-3.342c-0.85-1.422-1.275-3.045-1.275-4.868
			c0-2.283,0.452-4.213,1.354-5.797c0.901-1.583,2.113-2.77,3.637-3.556c1.518-0.785,3.199-1.179,5.041-1.179
			c1.182,0,2.296,0.133,3.342,0.397c1.043,0.265,1.962,0.61,2.759,1.036l-1.246,3.581c-0.516-0.282-1.219-0.544-2.112-0.783
			c-0.892-0.238-1.638-0.358-2.238-0.358c-2.123,0-3.745,0.53-4.869,1.593c-1.124,1.062-1.687,2.635-1.687,4.721
			c0,1.203,0.277,2.253,0.824,3.146c0.547,0.893,1.313,1.578,2.292,2.055c0.983,0.477,2.104,0.717,3.357,0.717
			c1.202,0,2.095-0.167,2.679-0.503V20.85h-3.368v-3.713h7.269v8.251C129.723,25.706,129.188,26.037,128.418,26.383z"/>
		<path fill="#191654" d="M138.247,7.824v19.527h-3.849V7.824H138.247z"/>
		<path fill="#191654" d="M152.946,23.53h-6.476l-1.589,3.821h-3.795l8.808-20.296h0.215l8.806,20.296h-4.461L152.946,23.53z
			 M151.671,20.294l-1.884-4.751l-1.963,4.751H151.671z"/>
		<path fill="#191654" d="M165.6,7.824v15.813h9.181v3.714h-13.026V7.824H165.6z"/>
		<path fill="#191654" d="M189.138,7.824l-7.323,13.451v6.076h-3.847v-6.076l-7.191-13.451h4.752l4.48,9.021l4.38-9.021H189.138z"/>
		<path fill="#191654" d="M52.322,7.055v3.861h-9.844v4.33h8.713v3.861h-8.713v4.384h10.229v3.86H38.48V7.055H52.322z"/>
		<path fill="#191654" d="M73.96,7.824v20.325h-0.104l-13.657-12.34l0.078,11.542h-3.897V7.055h0.158l13.63,12.524L70.089,7.824
			H73.96z"/>
		<path fill="#191654" d="M92.311,7.824v3.716h-9.466v4.165h8.38v3.714h-8.38v4.218h9.837v3.714H78.999V7.824H92.311z"/>
		<path fill="#191654" d="M107.183,27.351l-4.109-6.208h-2.572v6.208h-3.842V7.824h5.908c2.422,0,4.3,0.589,5.638,1.765
			c1.33,1.177,2.002,2.782,2.002,4.814c0,1.205-0.254,2.332-0.757,3.383c-0.504,1.052-1.277,1.88-2.32,2.48l4.534,7.084H107.183z
			 M100.501,17.43h2.729c1.044,0,1.803-0.306,2.281-0.917c0.474-0.609,0.712-1.267,0.712-1.976c0-0.707-0.2-1.382-0.604-2.029
			c-0.408-0.646-1.193-0.967-2.361-0.967h-2.757V17.43z"/>
		<path fill="#191654" d="M128.418,26.383c-0.77,0.344-1.618,0.628-2.547,0.85c-0.93,0.22-1.775,0.332-2.533,0.332
			c-2.068,0-3.887-0.403-5.454-1.208c-1.565-0.804-2.77-1.919-3.619-3.342c-0.85-1.422-1.275-3.045-1.275-4.868
			c0-2.283,0.452-4.213,1.354-5.797c0.901-1.583,2.113-2.77,3.637-3.556c1.518-0.785,3.199-1.179,5.041-1.179
			c1.182,0,2.296,0.133,3.342,0.397c1.043,0.265,1.962,0.61,2.759,1.036l-1.246,3.581c-0.516-0.282-1.219-0.544-2.112-0.783
			c-0.892-0.238-1.638-0.358-2.238-0.358c-2.123,0-3.745,0.53-4.869,1.593c-1.124,1.062-1.687,2.635-1.687,4.721
			c0,1.203,0.277,2.253,0.824,3.146c0.547,0.893,1.313,1.578,2.292,2.055c0.983,0.477,2.104,0.717,3.357,0.717
			c1.202,0,2.095-0.167,2.679-0.503V20.85h-3.368v-3.713h7.269v8.251C129.723,25.706,129.188,26.037,128.418,26.383z"/>
		<path fill="#191654" d="M138.247,7.824v19.527h-3.849V7.824H138.247z"/>
		<path fill="#191654" d="M152.946,23.53h-6.476l-1.589,3.821h-3.795l8.808-20.296h0.215l8.806,20.296h-4.461L152.946,23.53z
			 M151.671,20.294l-1.884-4.751l-1.963,4.751H151.671z"/>
		<path fill="#191654" d="M165.6,7.824v15.813h9.181v3.714h-13.026V7.824H165.6z"/>
		<path fill="#191654" d="M189.138,7.824l-7.323,13.451v6.076h-3.847v-6.076l-7.191-13.451h4.752l4.48,9.021l4.38-9.021H189.138z"/>
		<path fill="#191654" d="M52.322,7.055v3.861h-9.844v4.33h8.713v3.861h-8.713v4.384h10.229v3.86H38.48V7.055H52.322z"/>
		<path fill="#191654" d="M73.96,7.824v20.325h-0.104l-13.657-12.34l0.078,11.542h-3.897V7.055h0.158l13.63,12.524L70.089,7.824
			H73.96z"/>
		<path fill="#191654" d="M92.311,7.824v3.716h-9.466v4.165h8.38v3.714h-8.38v4.218h9.837v3.714H78.999V7.824H92.311z"/>
		<path fill="#191654" d="M107.183,27.351l-4.109-6.208h-2.572v6.208h-3.842V7.824h5.908c2.422,0,4.3,0.589,5.638,1.765
			c1.33,1.177,2.002,2.782,2.002,4.814c0,1.205-0.254,2.332-0.757,3.383c-0.504,1.052-1.277,1.88-2.32,2.48l4.534,7.084H107.183z
			 M100.501,17.43h2.729c1.044,0,1.803-0.306,2.281-0.917c0.474-0.609,0.712-1.267,0.712-1.976c0-0.707-0.2-1.382-0.604-2.029
			c-0.408-0.646-1.193-0.967-2.361-0.967h-2.757V17.43z"/>
		<path fill="#191654" d="M128.418,26.383c-0.77,0.344-1.618,0.628-2.547,0.85c-0.93,0.22-1.775,0.332-2.533,0.332
			c-2.068,0-3.887-0.403-5.454-1.208c-1.565-0.804-2.77-1.919-3.619-3.342c-0.85-1.422-1.275-3.045-1.275-4.868
			c0-2.283,0.452-4.213,1.354-5.797c0.901-1.583,2.113-2.77,3.637-3.556c1.518-0.785,3.199-1.179,5.041-1.179
			c1.182,0,2.296,0.133,3.342,0.397c1.043,0.265,1.962,0.61,2.759,1.036l-1.246,3.581c-0.516-0.282-1.219-0.544-2.112-0.783
			c-0.892-0.238-1.638-0.358-2.238-0.358c-2.123,0-3.745,0.53-4.869,1.593c-1.124,1.062-1.687,2.635-1.687,4.721
			c0,1.203,0.277,2.253,0.824,3.146c0.547,0.893,1.313,1.578,2.292,2.055c0.983,0.477,2.104,0.717,3.357,0.717
			c1.202,0,2.095-0.167,2.679-0.503V20.85h-3.368v-3.713h7.269v8.251C129.723,25.706,129.188,26.037,128.418,26.383z"/>
		<path fill="#191654" d="M138.247,7.824v19.527h-3.849V7.824H138.247z"/>
		<path fill="#191654" d="M152.946,23.53h-6.476l-1.589,3.821h-3.795l8.808-20.296h0.215l8.806,20.296h-4.461L152.946,23.53z
			 M151.671,20.294l-1.884-4.751l-1.963,4.751H151.671z"/>
		<path fill="#191654" d="M165.6,7.824v15.813h9.181v3.714h-13.026V7.824H165.6z"/>
		<path fill="#191654" d="M189.138,7.824l-7.323,13.451v6.076h-3.847v-6.076l-7.191-13.451h4.752l4.48,9.021l4.38-9.021H189.138z"/>
		<path fill="#191654" d="M52.322,7.055v3.861h-9.844v4.33h8.713v3.861h-8.713v4.384h10.229v3.86H38.48V7.055H52.322z"/>
		<path fill="#191654" d="M73.96,7.824v20.325h-0.104l-13.657-12.34l0.078,11.542h-3.897V7.055h0.158l13.63,12.524L70.089,7.824
			H73.96z"/>
		<path fill="#191654" d="M92.311,7.824v3.716h-9.466v4.165h8.38v3.714h-8.38v4.218h9.837v3.714H78.999V7.824H92.311z"/>
		<path fill="#191654" d="M107.183,27.351l-4.109-6.208h-2.572v6.208h-3.842V7.824h5.908c2.422,0,4.3,0.589,5.638,1.765
			c1.33,1.177,2.002,2.782,2.002,4.814c0,1.205-0.254,2.332-0.757,3.383c-0.504,1.052-1.277,1.88-2.32,2.48l4.534,7.084H107.183z
			 M100.501,17.43h2.729c1.044,0,1.803-0.306,2.281-0.917c0.474-0.609,0.712-1.267,0.712-1.976c0-0.707-0.2-1.382-0.604-2.029
			c-0.408-0.646-1.193-0.967-2.361-0.967h-2.757V17.43z"/>
		<path fill="#191654" d="M128.418,26.383c-0.77,0.344-1.618,0.628-2.547,0.85c-0.93,0.22-1.775,0.332-2.533,0.332
			c-2.068,0-3.887-0.403-5.454-1.208c-1.565-0.804-2.77-1.919-3.619-3.342c-0.85-1.422-1.275-3.045-1.275-4.868
			c0-2.283,0.452-4.213,1.354-5.797c0.901-1.583,2.113-2.77,3.637-3.556c1.518-0.785,3.199-1.179,5.041-1.179
			c1.182,0,2.296,0.133,3.342,0.397c1.043,0.265,1.962,0.61,2.759,1.036l-1.246,3.581c-0.516-0.282-1.219-0.544-2.112-0.783
			c-0.892-0.238-1.638-0.358-2.238-0.358c-2.123,0-3.745,0.53-4.869,1.593c-1.124,1.062-1.687,2.635-1.687,4.721
			c0,1.203,0.277,2.253,0.824,3.146c0.547,0.893,1.313,1.578,2.292,2.055c0.983,0.477,2.104,0.717,3.357,0.717
			c1.202,0,2.095-0.167,2.679-0.503V20.85h-3.368v-3.713h7.269v8.251C129.723,25.706,129.188,26.037,128.418,26.383z"/>
		<path fill="#191654" d="M138.247,7.824v19.527h-3.849V7.824H138.247z"/>
		<path fill="#191654" d="M152.946,23.53h-6.476l-1.589,3.821h-3.795l8.808-20.296h0.215l8.806,20.296h-4.461L152.946,23.53z
			 M151.671,20.294l-1.884-4.751l-1.963,4.751H151.671z"/>
		<path fill="#191654" d="M165.6,7.824v15.813h9.181v3.714h-13.026V7.824H165.6z"/>
		<path fill="#191654" d="M189.138,7.824l-7.323,13.451v6.076h-3.847v-6.076l-7.191-13.451h4.752l4.48,9.021l4.38-9.021H189.138z"/>
	</g>
	<g>
		<g>
			<linearGradient id="SVGID_1_" gradientUnits="userSpaceOnUse" x1="9.8975" y1="-1.0303" x2="23.8014" y2="12.8736">
				<stop  offset="0.0108" style="stop-color:#43C6AC"/>
				<stop  offset="0.8172" style="stop-color:#191654"/>
			</linearGradient>
			<polygon fill="url(#SVGID_1_)" points="7.253,9.125 5.044,3.821 27.548,3.821 27.548,9.125 			"/>
			<linearGradient id="SVGID_2_" gradientUnits="userSpaceOnUse" x1="16.9795" y1="24.0068" x2="26.1622" y2="33.1896">
				<stop  offset="0.0108" style="stop-color:#43C6AC"/>
				<stop  offset="0.8172" style="stop-color:#191654"/>
			</linearGradient>
			<polygon fill="url(#SVGID_2_)" points="16.696,31.802 14.488,26.497 27.548,26.497 27.548,31.802 			"/>
			<linearGradient id="SVGID_3_" gradientUnits="userSpaceOnUse" x1="13.438" y1="11.4888" x2="24.981" y2="23.0317">
				<stop  offset="0.0108" style="stop-color:#43C6AC"/>
				<stop  offset="0.8172" style="stop-color:#191654"/>
			</linearGradient>
			<polygon fill="url(#SVGID_3_)" points="11.974,20.464 9.765,15.16 27.548,15.16 27.548,20.464 			"/>
		</g>
	</g>
</g>
</svg>
